<mxfile host="Electron" modified="2024-03-25T21:52:00.118Z" agent="Mozilla/5.0 (Windows NT 10.0; Win64; x64) AppleWebKit/537.36 (KHTML, like Gecko) draw.io/24.1.0 Chrome/120.0.6099.109 Electron/28.1.0 Safari/537.36" etag="yJ0LoJXE_nfId8ddYWjW" version="24.1.0" type="device">
  <diagram id="u029bwfq_XMvg7nElH4S" name="Page-1">
    <mxGraphModel dx="-520" dy="839" grid="1" gridSize="10" guides="1" tooltips="1" connect="1" arrows="1" fold="1" page="1" pageScale="1" pageWidth="1920" pageHeight="1200" math="0" shadow="0">
      <root>
        <mxCell id="0" />
        <mxCell id="1" parent="0" />
        <mxCell id="vALBHNov3Xy2VgJin_U1-1" value="" style="rounded=0;whiteSpace=wrap;html=1;fontSize=22;fillColor=#f5f5f5;fontColor=#333333;strokeColor=#666666;direction=east;strokeWidth=2;fontStyle=1" parent="1" vertex="1">
          <mxGeometry x="2080" y="100" width="1200" height="1000" as="geometry" />
        </mxCell>
        <mxCell id="zsxtk6jnnlvboRljrawx-2" value="" style="rounded=0;whiteSpace=wrap;html=1;strokeWidth=2;fontStyle=1;" parent="1" vertex="1">
          <mxGeometry x="2110" y="340" width="1140" height="180" as="geometry" />
        </mxCell>
        <mxCell id="vALBHNov3Xy2VgJin_U1-3" value="" style="rounded=0;whiteSpace=wrap;html=1;strokeWidth=2;fontStyle=1;" parent="1" vertex="1">
          <mxGeometry x="2110" y="140" width="1140" height="200" as="geometry" />
        </mxCell>
        <mxCell id="vALBHNov3Xy2VgJin_U1-4" value="CLAIMANT/&lt;br&gt;SUBSCRIBER" style="text;html=1;align=center;verticalAlign=middle;resizable=0;points=[];autosize=1;strokeColor=none;fillColor=none;fontStyle=1;fontSize=23;strokeWidth=2;horizontal=0;" parent="1" vertex="1">
          <mxGeometry x="2110" y="155" width="80" height="170" as="geometry" />
        </mxCell>
        <mxCell id="vALBHNov3Xy2VgJin_U1-9" value="TOKEN-BASED AUTHENTICATION" style="text;html=1;align=center;verticalAlign=middle;resizable=0;points=[];autosize=1;strokeColor=none;fillColor=none;fontStyle=1;strokeWidth=2;fontSize=23;" parent="1" vertex="1">
          <mxGeometry x="2860" y="100" width="400" height="40" as="geometry" />
        </mxCell>
        <mxCell id="vALBHNov3Xy2VgJin_U1-11" value="E" style="ellipse;whiteSpace=wrap;html=1;aspect=fixed;strokeWidth=2;fontStyle=1;fontSize=22;direction=south;" parent="1" vertex="1">
          <mxGeometry x="2110" y="105" width="30" height="30" as="geometry" />
        </mxCell>
        <mxCell id="vALBHNov3Xy2VgJin_U1-23" value="" style="rounded=0;whiteSpace=wrap;html=1;strokeWidth=2;fontStyle=1;" parent="1" vertex="1">
          <mxGeometry x="2110" y="520" width="1140" height="190" as="geometry" />
        </mxCell>
        <mxCell id="vALBHNov3Xy2VgJin_U1-24" value="" style="rounded=0;whiteSpace=wrap;html=1;strokeWidth=2;fontStyle=1;" parent="1" vertex="1">
          <mxGeometry x="2110" y="710" width="1140" height="360" as="geometry" />
        </mxCell>
        <mxCell id="vALBHNov3Xy2VgJin_U1-25" value="PRIVATE NETWORK&lt;br style=&quot;border-color: var(--border-color);&quot;&gt;SYSTEMS (SERVER)" style="text;html=1;align=center;verticalAlign=middle;resizable=0;points=[];autosize=1;strokeColor=none;fillColor=none;fontStyle=1;fontSize=23;strokeWidth=2;horizontal=0;" parent="1" vertex="1">
          <mxGeometry x="2113" y="765" width="80" height="240" as="geometry" />
        </mxCell>
        <mxCell id="vALBHNov3Xy2VgJin_U1-26" value="PUBLIC &lt;br&gt;NETWORK&lt;br style=&quot;border-color: var(--border-color);&quot;&gt;SYSTEMS &lt;br&gt;(CLIENT)" style="text;html=1;align=center;verticalAlign=middle;resizable=0;points=[];autosize=1;strokeColor=none;fillColor=none;fontStyle=1;fontSize=23;strokeWidth=2;horizontal=0;" parent="1" vertex="1">
          <mxGeometry x="2113" y="550" width="130" height="130" as="geometry" />
        </mxCell>
        <mxCell id="vALBHNov3Xy2VgJin_U1-28" value="" style="edgeStyle=orthogonalEdgeStyle;rounded=0;orthogonalLoop=1;jettySize=auto;html=1;strokeColor=#00CC00;strokeWidth=2;fontStyle=1;" parent="1" edge="1">
          <mxGeometry relative="1" as="geometry">
            <mxPoint x="2470.000000000001" y="384.85714285714266" as="sourcePoint" />
          </mxGeometry>
        </mxCell>
        <mxCell id="vALBHNov3Xy2VgJin_U1-81" value="" style="edgeStyle=orthogonalEdgeStyle;rounded=0;orthogonalLoop=1;jettySize=auto;html=1;strokeColor=#00CC00;fontStyle=1;strokeWidth=2;" parent="1" source="vALBHNov3Xy2VgJin_U1-82" target="vALBHNov3Xy2VgJin_U1-83" edge="1">
          <mxGeometry relative="1" as="geometry" />
        </mxCell>
        <mxCell id="vALBHNov3Xy2VgJin_U1-82" value="LOGS THE PROCESS AND STATUS" style="rounded=0;whiteSpace=wrap;html=1;fontStyle=1;strokeWidth=2;" parent="1" vertex="1">
          <mxGeometry x="3100" y="880" width="120" height="65.38" as="geometry" />
        </mxCell>
        <mxCell id="vALBHNov3Xy2VgJin_U1-83" value="&lt;b&gt;END&lt;/b&gt;" style="strokeWidth=2;html=1;shape=mxgraph.flowchart.terminator;whiteSpace=wrap;fillColor=#f8cecc;strokeColor=#b85450;" parent="1" vertex="1">
          <mxGeometry x="3110" y="975.38" width="100" height="40" as="geometry" />
        </mxCell>
        <mxCell id="vALBHNov3Xy2VgJin_U1-84" value="IDA" style="ellipse;whiteSpace=wrap;html=1;fillColor=#dae8fc;strokeColor=#6c8ebf;gradientColor=#7ea6e0;fontStyle=1" parent="1" vertex="1">
          <mxGeometry x="3100" y="854" width="30" height="26" as="geometry" />
        </mxCell>
        <mxCell id="vALBHNov3Xy2VgJin_U1-135" style="edgeStyle=orthogonalEdgeStyle;rounded=0;orthogonalLoop=1;jettySize=auto;html=1;exitX=0.5;exitY=0;exitDx=0;exitDy=0;exitPerimeter=0;entryX=0.5;entryY=1;entryDx=0;entryDy=0;strokeColor=#00CC00;fontColor=default;strokeWidth=2;fontStyle=1;" parent="1" source="PTV4liFlkup0Ows6Lfgs-5" target="zsxtk6jnnlvboRljrawx-31" edge="1">
          <mxGeometry relative="1" as="geometry" />
        </mxCell>
        <mxCell id="vALBHNov3Xy2VgJin_U1-86" value="&lt;span style=&quot;border-color: var(--border-color);&quot;&gt;&lt;b&gt;TERMINATE PROCESS:&lt;br&gt;&lt;/b&gt;RECORD TIMESTAMP AND ATTEMPT&lt;br&gt;&lt;/span&gt;" style="strokeWidth=2;html=1;shape=mxgraph.flowchart.terminator;whiteSpace=wrap;fillColor=#f8cecc;strokeColor=#b85450;" parent="1" vertex="1">
          <mxGeometry x="2813.76" y="993" width="165.47" height="49" as="geometry" />
        </mxCell>
        <mxCell id="vALBHNov3Xy2VgJin_U1-90" value="KR" style="ellipse;whiteSpace=wrap;html=1;fillColor=#dae8fc;strokeColor=#6c8ebf;gradientColor=#7ea6e0;fontStyle=1" parent="1" vertex="1">
          <mxGeometry x="2800" y="979" width="30" height="26" as="geometry" />
        </mxCell>
        <mxCell id="vALBHNov3Xy2VgJin_U1-108" value="" style="edgeStyle=orthogonalEdgeStyle;rounded=0;orthogonalLoop=1;jettySize=auto;html=1;strokeColor=#00CC00;strokeWidth=2;fontStyle=1;" parent="1" edge="1">
          <mxGeometry relative="1" as="geometry">
            <mxPoint x="2565" y="45" as="sourcePoint" />
          </mxGeometry>
        </mxCell>
        <mxCell id="vALBHNov3Xy2VgJin_U1-136" style="edgeStyle=orthogonalEdgeStyle;rounded=0;orthogonalLoop=1;jettySize=auto;html=1;exitX=1;exitY=0.5;exitDx=0;exitDy=0;entryX=0.5;entryY=0;entryDx=0;entryDy=0;entryPerimeter=0;strokeColor=#00CC00;strokeWidth=2;fontStyle=1;" parent="1" source="PTV4liFlkup0Ows6Lfgs-7" target="vALBHNov3Xy2VgJin_U1-82" edge="1">
          <mxGeometry relative="1" as="geometry" />
        </mxCell>
        <mxCell id="PTV4liFlkup0Ows6Lfgs-8" style="edgeStyle=orthogonalEdgeStyle;rounded=0;orthogonalLoop=1;jettySize=auto;html=1;exitX=0.5;exitY=0;exitDx=0;exitDy=0;entryX=0.5;entryY=1;entryDx=0;entryDy=0;strokeColor=#00CC00;strokeWidth=2;fontStyle=1;" parent="1" source="vALBHNov3Xy2VgJin_U1-134" target="PTV4liFlkup0Ows6Lfgs-7" edge="1">
          <mxGeometry relative="1" as="geometry" />
        </mxCell>
        <mxCell id="vALBHNov3Xy2VgJin_U1-134" value="RECEIVE SUCCESSFUL AUTHENTICATION&amp;nbsp; NOTIFICATION WITH TIMESTAMP" style="rounded=0;whiteSpace=wrap;html=1;fontStyle=1;strokeWidth=2;fontSize=11;" parent="1" vertex="1">
          <mxGeometry x="2975" y="376" width="110" height="84" as="geometry" />
        </mxCell>
        <mxCell id="zsxtk6jnnlvboRljrawx-1" value="AU.2" style="text;html=1;align=center;verticalAlign=middle;resizable=0;points=[];autosize=1;strokeColor=none;fillColor=none;fontSize=23;fontStyle=1" parent="1" vertex="1">
          <mxGeometry x="2638" y="100" width="80" height="40" as="geometry" />
        </mxCell>
        <mxCell id="zsxtk6jnnlvboRljrawx-3" value="VERIFIER" style="text;html=1;align=center;verticalAlign=middle;resizable=0;points=[];autosize=1;strokeColor=none;fillColor=none;fontStyle=1;fontSize=23;strokeWidth=2;horizontal=0;" parent="1" vertex="1">
          <mxGeometry x="2110" y="362.01" width="50" height="120" as="geometry" />
        </mxCell>
        <mxCell id="zsxtk6jnnlvboRljrawx-6" value="" style="edgeStyle=orthogonalEdgeStyle;rounded=0;orthogonalLoop=1;jettySize=auto;html=1;strokeColor=#00CC00;strokeWidth=2;fontStyle=1;" parent="1" source="zsxtk6jnnlvboRljrawx-4" target="zsxtk6jnnlvboRljrawx-5" edge="1">
          <mxGeometry relative="1" as="geometry" />
        </mxCell>
        <mxCell id="zsxtk6jnnlvboRljrawx-4" value="&lt;b style=&quot;font-size: 11px;&quot;&gt;START&lt;br&gt;(ONLINE)&lt;br&gt;&lt;/b&gt;" style="strokeWidth=2;html=1;shape=mxgraph.flowchart.terminator;whiteSpace=wrap;fillColor=#d5e8d4;strokeColor=#82b366;fontSize=11;" parent="1" vertex="1">
          <mxGeometry x="2243" y="400" width="100" height="40" as="geometry" />
        </mxCell>
        <mxCell id="hWS_E1lj5VDzFi5LaFLm-1" style="edgeStyle=orthogonalEdgeStyle;rounded=0;orthogonalLoop=1;jettySize=auto;html=1;exitX=0.5;exitY=0;exitDx=0;exitDy=0;entryX=0.5;entryY=1;entryDx=0;entryDy=0;strokeColor=#00CC00;strokeWidth=2;fontStyle=1;" parent="1" source="zsxtk6jnnlvboRljrawx-5" target="zsxtk6jnnlvboRljrawx-8" edge="1">
          <mxGeometry relative="1" as="geometry" />
        </mxCell>
        <mxCell id="zsxtk6jnnlvboRljrawx-5" value="REQUEST TOKEN FOR AUTHENTICATION" style="rounded=0;whiteSpace=wrap;html=1;fontStyle=1;strokeWidth=2;fontSize=11;" parent="1" vertex="1">
          <mxGeometry x="2368.5" y="391.38" width="121.5" height="57.25" as="geometry" />
        </mxCell>
        <mxCell id="zsxtk6jnnlvboRljrawx-12" style="edgeStyle=orthogonalEdgeStyle;rounded=0;orthogonalLoop=1;jettySize=auto;html=1;exitX=1;exitY=0.5;exitDx=0;exitDy=0;entryX=0.5;entryY=0;entryDx=0;entryDy=0;strokeColor=#00CC00;strokeWidth=2;fontStyle=1;" parent="1" source="zsxtk6jnnlvboRljrawx-8" target="zsxtk6jnnlvboRljrawx-10" edge="1">
          <mxGeometry relative="1" as="geometry" />
        </mxCell>
        <mxCell id="zsxtk6jnnlvboRljrawx-8" value="PROVIDE GENERATED TOKEN AND &lt;br&gt;DEMOGRAPHIC DATA&lt;br&gt;&lt;u&gt;AU.2.D&lt;/u&gt;" style="rounded=0;whiteSpace=wrap;html=1;fontStyle=1;strokeWidth=2;fontSize=11;shape=label;fixedSize=1;" parent="1" vertex="1">
          <mxGeometry x="2349.25" y="196" width="160" height="67.25" as="geometry" />
        </mxCell>
        <mxCell id="zsxtk6jnnlvboRljrawx-15" style="edgeStyle=orthogonalEdgeStyle;rounded=0;orthogonalLoop=1;jettySize=auto;html=1;exitX=0.5;exitY=1;exitDx=0;exitDy=0;entryX=0.5;entryY=0;entryDx=0;entryDy=0;strokeColor=#00CC00;strokeWidth=2;fontStyle=1;" parent="1" source="zsxtk6jnnlvboRljrawx-10" target="zsxtk6jnnlvboRljrawx-13" edge="1">
          <mxGeometry relative="1" as="geometry" />
        </mxCell>
        <mxCell id="zsxtk6jnnlvboRljrawx-10" value="RECEIVE TOKEN AND DEMOGRAPHIC DATA" style="rounded=0;whiteSpace=wrap;html=1;fontStyle=1;strokeWidth=2;fontSize=11;" parent="1" vertex="1">
          <mxGeometry x="2522" y="376" width="120" height="39" as="geometry" />
        </mxCell>
        <mxCell id="zsxtk6jnnlvboRljrawx-19" style="edgeStyle=orthogonalEdgeStyle;rounded=0;orthogonalLoop=1;jettySize=auto;html=1;exitX=0.5;exitY=1;exitDx=0;exitDy=0;strokeColor=#00CC00;strokeWidth=2;fontStyle=1;entryX=0.5;entryY=0;entryDx=0;entryDy=0;" parent="1" source="zsxtk6jnnlvboRljrawx-13" target="hWS_E1lj5VDzFi5LaFLm-5" edge="1">
          <mxGeometry relative="1" as="geometry">
            <Array as="points">
              <mxPoint x="2582" y="660" />
              <mxPoint x="2345" y="660" />
            </Array>
          </mxGeometry>
        </mxCell>
        <mxCell id="zsxtk6jnnlvboRljrawx-13" value="MASK &amp;amp; ENCRYPT VERIFIER CREDENTIALS, TOKEN AND DEMOGRAPHIC DATA" style="rounded=0;whiteSpace=wrap;html=1;fontStyle=1;strokeWidth=2;fontSize=11;" parent="1" vertex="1">
          <mxGeometry x="2510" y="575" width="143" height="65" as="geometry" />
        </mxCell>
        <mxCell id="zsxtk6jnnlvboRljrawx-23" value="" style="edgeStyle=orthogonalEdgeStyle;rounded=0;orthogonalLoop=1;jettySize=auto;html=1;entryX=0;entryY=0.5;entryDx=0;entryDy=0;strokeColor=#00CC00;strokeWidth=2;fontStyle=1;" parent="1" source="zsxtk6jnnlvboRljrawx-17" target="zsxtk6jnnlvboRljrawx-20" edge="1">
          <mxGeometry relative="1" as="geometry" />
        </mxCell>
        <mxCell id="zsxtk6jnnlvboRljrawx-29" style="edgeStyle=orthogonalEdgeStyle;rounded=0;orthogonalLoop=1;jettySize=auto;html=1;exitX=0.5;exitY=1;exitDx=0;exitDy=0;entryX=0.167;entryY=0.01;entryDx=0;entryDy=0;strokeColor=#FF2617;strokeWidth=2;fontStyle=1;entryPerimeter=0;" parent="1" source="zsxtk6jnnlvboRljrawx-17" target="IdOLs9NI2UFiswo4S4uw-5" edge="1">
          <mxGeometry relative="1" as="geometry">
            <mxPoint x="2676" y="1017.5" as="targetPoint" />
          </mxGeometry>
        </mxCell>
        <mxCell id="zsxtk6jnnlvboRljrawx-17" value="IF &lt;br&gt;TOKEN AND DEMOGRAPHIC DATA IS&lt;br&gt;MATCH" style="rounded=0;whiteSpace=wrap;html=1;fontStyle=1;strokeWidth=2;fontSize=11;shape=rhombus;perimeter=rhombusPerimeter;" parent="1" vertex="1">
          <mxGeometry x="2463" y="854" width="110" height="95.25" as="geometry" />
        </mxCell>
        <mxCell id="zsxtk6jnnlvboRljrawx-25" value="RESET COUNTER" style="edgeStyle=orthogonalEdgeStyle;rounded=0;orthogonalLoop=1;jettySize=auto;html=1;strokeColor=#00CC00;strokeWidth=2;fontStyle=1;exitX=1;exitY=0.5;exitDx=0;exitDy=0;" parent="1" source="zsxtk6jnnlvboRljrawx-20" target="zsxtk6jnnlvboRljrawx-24" edge="1">
          <mxGeometry x="-0.1044" y="2" relative="1" as="geometry">
            <mxPoint x="2807.976958216064" y="900.2266666666669" as="sourcePoint" />
            <mxPoint as="offset" />
          </mxGeometry>
        </mxCell>
        <mxCell id="zsxtk6jnnlvboRljrawx-30" style="edgeStyle=orthogonalEdgeStyle;rounded=0;orthogonalLoop=1;jettySize=auto;html=1;exitX=0.5;exitY=1;exitDx=0;exitDy=0;entryX=0.907;entryY=-0.089;entryDx=0;entryDy=0;strokeColor=#FF2617;strokeWidth=2;fontStyle=1;entryPerimeter=0;" parent="1" source="zsxtk6jnnlvboRljrawx-20" target="IdOLs9NI2UFiswo4S4uw-5" edge="1">
          <mxGeometry relative="1" as="geometry">
            <mxPoint x="2676" y="1017.5" as="targetPoint" />
            <Array as="points">
              <mxPoint x="2644" y="980" />
              <mxPoint x="2643" y="980" />
            </Array>
          </mxGeometry>
        </mxCell>
        <mxCell id="zsxtk6jnnlvboRljrawx-20" value="IF &lt;br&gt;TOKEN NOT &lt;br style=&quot;font-size: 11px;&quot;&gt;EXPIRED" style="rounded=0;whiteSpace=wrap;html=1;fontStyle=1;strokeWidth=2;fontSize=11;shape=rhombus;perimeter=rhombusPerimeter;" parent="1" vertex="1">
          <mxGeometry x="2597" y="859.43" width="93" height="84.57" as="geometry" />
        </mxCell>
        <mxCell id="zsxtk6jnnlvboRljrawx-21" value="KM" style="ellipse;whiteSpace=wrap;html=1;fillColor=#dae8fc;strokeColor=#6c8ebf;gradientColor=#7ea6e0;fontStyle=1" parent="1" vertex="1">
          <mxGeometry x="2599" y="859.5" width="30" height="26" as="geometry" />
        </mxCell>
        <mxCell id="zsxtk6jnnlvboRljrawx-22" value="AC" style="ellipse;whiteSpace=wrap;html=1;fillColor=#dae8fc;strokeColor=#6c8ebf;gradientColor=#7ea6e0;fontStyle=1" parent="1" vertex="1">
          <mxGeometry x="2467" y="855.43" width="30" height="26" as="geometry" />
        </mxCell>
        <mxCell id="IdOLs9NI2UFiswo4S4uw-4" style="edgeStyle=orthogonalEdgeStyle;rounded=0;orthogonalLoop=1;jettySize=auto;html=1;exitX=0.5;exitY=0;exitDx=0;exitDy=0;exitPerimeter=0;entryX=0.5;entryY=1;entryDx=0;entryDy=0;strokeColor=#00CC00;strokeWidth=2;fontStyle=1;" parent="1" source="zsxtk6jnnlvboRljrawx-24" target="vALBHNov3Xy2VgJin_U1-134" edge="1">
          <mxGeometry relative="1" as="geometry" />
        </mxCell>
        <mxCell id="zsxtk6jnnlvboRljrawx-24" value="STORE SUCCESSFUL TOKEN AUTHENTICATION STATUS IN UIN ACCOUNT" style="rounded=0;whiteSpace=wrap;html=1;fontStyle=1;strokeWidth=2;" parent="1" vertex="1">
          <mxGeometry x="2970" y="880" width="120" height="90" as="geometry" />
        </mxCell>
        <mxCell id="zsxtk6jnnlvboRljrawx-26" value="IDA" style="ellipse;whiteSpace=wrap;html=1;fillColor=#dae8fc;strokeColor=#6c8ebf;gradientColor=#7ea6e0;fontStyle=1" parent="1" vertex="1">
          <mxGeometry x="2970" y="854" width="30" height="26" as="geometry" />
        </mxCell>
        <mxCell id="zsxtk6jnnlvboRljrawx-27" value="HSM" style="ellipse;whiteSpace=wrap;html=1;fillColor=#dae8fc;strokeColor=#6c8ebf;gradientColor=#7ea6e0;fontStyle=1" parent="1" vertex="1">
          <mxGeometry x="2940" y="944" width="30" height="26" as="geometry" />
        </mxCell>
        <mxCell id="zsxtk6jnnlvboRljrawx-28" value="KM" style="ellipse;whiteSpace=wrap;html=1;fillColor=#dae8fc;strokeColor=#6c8ebf;gradientColor=#7ea6e0;fontStyle=1" parent="1" vertex="1">
          <mxGeometry x="2940" y="880" width="30" height="26" as="geometry" />
        </mxCell>
        <mxCell id="zsxtk6jnnlvboRljrawx-38" style="edgeStyle=orthogonalEdgeStyle;rounded=0;orthogonalLoop=1;jettySize=auto;html=1;exitX=0.5;exitY=0;exitDx=0;exitDy=0;strokeColor=#00CC00;strokeWidth=2;fontStyle=1;" parent="1" source="zsxtk6jnnlvboRljrawx-31" target="vALBHNov3Xy2VgJin_U1-82" edge="1">
          <mxGeometry relative="1" as="geometry" />
        </mxCell>
        <mxCell id="zsxtk6jnnlvboRljrawx-31" value="RECEIVE UNSUCCESSFUL AUTHENTICATION ATTEMPT NOTIFICATION WITH TIMESTAMP" style="rounded=0;whiteSpace=wrap;html=1;fontStyle=1;strokeWidth=2;fontSize=11;" parent="1" vertex="1">
          <mxGeometry x="2839" y="196" width="115" height="84" as="geometry" />
        </mxCell>
        <mxCell id="zsxtk6jnnlvboRljrawx-33" style="edgeStyle=orthogonalEdgeStyle;rounded=0;orthogonalLoop=1;jettySize=auto;html=1;entryX=0;entryY=0.5;entryDx=0;entryDy=0;entryPerimeter=0;strokeColor=#FF2617;strokeWidth=2;fontStyle=1;" parent="1" source="zsxtk6jnnlvboRljrawx-32" target="vALBHNov3Xy2VgJin_U1-86" edge="1">
          <mxGeometry relative="1" as="geometry" />
        </mxCell>
        <mxCell id="zsxtk6jnnlvboRljrawx-36" style="edgeStyle=orthogonalEdgeStyle;rounded=0;orthogonalLoop=1;jettySize=auto;html=1;exitX=0.5;exitY=0;exitDx=0;exitDy=0;entryX=0.5;entryY=1;entryDx=0;entryDy=0;strokeColor=#00CC00;strokeWidth=2;fontStyle=1;jumpStyle=arc;jumpSize=11;" parent="1" source="zsxtk6jnnlvboRljrawx-32" target="zsxtk6jnnlvboRljrawx-35" edge="1">
          <mxGeometry relative="1" as="geometry" />
        </mxCell>
        <mxCell id="zsxtk6jnnlvboRljrawx-32" value="IF &lt;br&gt;RETRY COUNT &lt;br&gt;&amp;lt;=3" style="rounded=0;whiteSpace=wrap;html=1;fontStyle=1;strokeWidth=2;shape=rhombus;perimeter=rhombusPerimeter;" parent="1" vertex="1">
          <mxGeometry x="2692" y="972.5" width="95" height="90" as="geometry" />
        </mxCell>
        <mxCell id="PTV4liFlkup0Ows6Lfgs-4" style="edgeStyle=orthogonalEdgeStyle;rounded=0;orthogonalLoop=1;jettySize=auto;html=1;exitX=0.5;exitY=0;exitDx=0;exitDy=0;entryX=0.5;entryY=1;entryDx=0;entryDy=0;strokeColor=#00CC00;strokeWidth=2;fontStyle=1;" parent="1" source="zsxtk6jnnlvboRljrawx-35" target="PTV4liFlkup0Ows6Lfgs-3" edge="1">
          <mxGeometry relative="1" as="geometry" />
        </mxCell>
        <mxCell id="hWS_E1lj5VDzFi5LaFLm-9" style="edgeStyle=orthogonalEdgeStyle;rounded=0;orthogonalLoop=1;jettySize=auto;html=1;exitX=0;exitY=0.75;exitDx=0;exitDy=0;entryX=1;entryY=0.465;entryDx=0;entryDy=0;entryPerimeter=0;strokeColor=#00CC00;strokeWidth=2;fontStyle=1;" parent="1" source="zsxtk6jnnlvboRljrawx-35" target="hWS_E1lj5VDzFi5LaFLm-4" edge="1">
          <mxGeometry relative="1" as="geometry" />
        </mxCell>
        <mxCell id="zsxtk6jnnlvboRljrawx-35" value="RECEIVE UNSUCCESSFUL&amp;nbsp;&lt;br&gt;AUTHENTICATION ATTEMPT NOTIFICATION WITH TIMESTAMP" style="rounded=0;whiteSpace=wrap;html=1;fontStyle=1;strokeWidth=2;fontSize=11;" parent="1" vertex="1">
          <mxGeometry x="2682" y="387.01" width="115" height="84" as="geometry" />
        </mxCell>
        <mxCell id="IdOLs9NI2UFiswo4S4uw-6" value="&lt;font style=&quot;font-size: 14px;&quot;&gt;PUBLIC NETWORK&lt;/font&gt;" style="swimlane;whiteSpace=wrap;html=1;" parent="1" vertex="1">
          <mxGeometry x="3280" y="545" width="200" height="167" as="geometry" />
        </mxCell>
        <mxCell id="IdOLs9NI2UFiswo4S4uw-7" value="DNS SERVERS" style="text;html=1;strokeColor=none;fillColor=none;align=center;verticalAlign=middle;whiteSpace=wrap;rounded=0;fontSize=14;" parent="IdOLs9NI2UFiswo4S4uw-6" vertex="1">
          <mxGeometry y="27" width="200" height="28" as="geometry" />
        </mxCell>
        <mxCell id="IdOLs9NI2UFiswo4S4uw-8" value="FTP SERVERS" style="text;html=1;strokeColor=none;fillColor=none;align=center;verticalAlign=middle;whiteSpace=wrap;rounded=0;fontSize=14;" parent="IdOLs9NI2UFiswo4S4uw-6" vertex="1">
          <mxGeometry y="55" width="200" height="28" as="geometry" />
        </mxCell>
        <mxCell id="IdOLs9NI2UFiswo4S4uw-9" value="MAIL SERVERS" style="text;html=1;strokeColor=none;fillColor=none;align=center;verticalAlign=middle;whiteSpace=wrap;rounded=0;fontSize=14;" parent="IdOLs9NI2UFiswo4S4uw-6" vertex="1">
          <mxGeometry y="83" width="200" height="28" as="geometry" />
        </mxCell>
        <mxCell id="IdOLs9NI2UFiswo4S4uw-10" value="PROXY SERVERS" style="text;html=1;strokeColor=none;fillColor=none;align=center;verticalAlign=middle;whiteSpace=wrap;rounded=0;fontSize=14;" parent="IdOLs9NI2UFiswo4S4uw-6" vertex="1">
          <mxGeometry y="111" width="200" height="28" as="geometry" />
        </mxCell>
        <mxCell id="IdOLs9NI2UFiswo4S4uw-11" value="WEB SERVERS" style="text;html=1;strokeColor=none;fillColor=none;align=center;verticalAlign=middle;whiteSpace=wrap;rounded=0;fontSize=14;" parent="IdOLs9NI2UFiswo4S4uw-6" vertex="1">
          <mxGeometry y="139" width="200" height="28" as="geometry" />
        </mxCell>
        <mxCell id="hWS_E1lj5VDzFi5LaFLm-2" style="edgeStyle=orthogonalEdgeStyle;rounded=0;orthogonalLoop=1;jettySize=auto;html=1;exitX=0.5;exitY=0;exitDx=0;exitDy=0;entryX=0.5;entryY=0;entryDx=0;entryDy=0;strokeColor=#00CC00;strokeWidth=2;fontStyle=1;" parent="1" source="PTV4liFlkup0Ows6Lfgs-3" target="zsxtk6jnnlvboRljrawx-8" edge="1">
          <mxGeometry relative="1" as="geometry" />
        </mxCell>
        <mxCell id="PTV4liFlkup0Ows6Lfgs-3" value="RECEIVE UNSUCCESSFUL&amp;nbsp;&lt;br&gt;AUTHENTICATION ATTEMPT NOTIFICATION WITH TIMESTAMP" style="rounded=0;whiteSpace=wrap;html=1;fontStyle=1;strokeWidth=2;fontSize=11;" parent="1" vertex="1">
          <mxGeometry x="2682" y="196" width="115" height="84" as="geometry" />
        </mxCell>
        <mxCell id="PTV4liFlkup0Ows6Lfgs-6" value="" style="edgeStyle=orthogonalEdgeStyle;rounded=0;orthogonalLoop=1;jettySize=auto;html=1;exitX=0.5;exitY=0;exitDx=0;exitDy=0;exitPerimeter=0;entryX=0.5;entryY=1;entryDx=0;entryDy=0;strokeColor=#00CC00;fontColor=default;strokeWidth=2;fontStyle=1;jumpStyle=arc;jumpSize=11;" parent="1" source="vALBHNov3Xy2VgJin_U1-86" target="PTV4liFlkup0Ows6Lfgs-5" edge="1">
          <mxGeometry relative="1" as="geometry">
            <mxPoint x="2896" y="1024" as="sourcePoint" />
            <mxPoint x="2897" y="280" as="targetPoint" />
          </mxGeometry>
        </mxCell>
        <mxCell id="PTV4liFlkup0Ows6Lfgs-5" value="RECEIVE UNSUCCESSFUL AUTHENTICATION ATTEMPT NOTIFICATION WITH TIMESTAMP" style="rounded=0;whiteSpace=wrap;html=1;fontStyle=1;strokeWidth=2;fontSize=11;" parent="1" vertex="1">
          <mxGeometry x="2839" y="376" width="115" height="84" as="geometry" />
        </mxCell>
        <mxCell id="PTV4liFlkup0Ows6Lfgs-7" value="RECEIVE SUCCESSFUL AUTHENTICATION&amp;nbsp; NOTIFICATION WITH TIMESTAMP" style="rounded=0;whiteSpace=wrap;html=1;fontStyle=1;strokeWidth=2;fontSize=11;" parent="1" vertex="1">
          <mxGeometry x="2975" y="196" width="110" height="84" as="geometry" />
        </mxCell>
        <mxCell id="IdOLs9NI2UFiswo4S4uw-2" value="NOTIFICATION GENERATOR" style="rounded=0;whiteSpace=wrap;html=1;fontStyle=1;strokeWidth=2;fontSize=11;fillColor=default;strokeColor=default;" parent="1" vertex="1">
          <mxGeometry x="2670" y="760" width="430" height="26" as="geometry" />
        </mxCell>
        <mxCell id="vALBHNov3Xy2VgJin_U1-66" value="SINGLE/ DUAL FIREWALL" style="shape=label;whiteSpace=wrap;html=1;boundedLbl=1;backgroundOutline=1;darkOpacity=0.05;darkOpacity2=0.1;fillColor=#e51400;fontColor=#ffffff;strokeColor=#B20000;rounded=0;fontStyle=1" parent="1" vertex="1">
          <mxGeometry x="2109" y="506" width="1141" height="20" as="geometry" />
        </mxCell>
        <mxCell id="IdOLs9NI2UFiswo4S4uw-1" value="API/ HTTPS (SSL/TLS)" style="shape=label;whiteSpace=wrap;html=1;boundedLbl=1;backgroundOutline=1;darkOpacity=0.05;darkOpacity2=0.1;fillColor=#f8cecc;strokeColor=#b85450;rounded=0;fontStyle=1" parent="1" vertex="1">
          <mxGeometry x="2109" y="486" width="1141" height="20" as="geometry" />
        </mxCell>
        <mxCell id="578sOsebAL8ub08pe5w1-1" value="USER" style="shape=umlActor;verticalLabelPosition=bottom;verticalAlign=top;html=1;outlineConnect=0;fontStyle=1" parent="1" vertex="1">
          <mxGeometry x="2190" y="196" width="30" height="60" as="geometry" />
        </mxCell>
        <mxCell id="578sOsebAL8ub08pe5w1-2" value="VERIFIER" style="shape=umlActor;verticalLabelPosition=bottom;verticalAlign=top;html=1;outlineConnect=0;fontStyle=1" parent="1" vertex="1">
          <mxGeometry x="2193" y="380" width="30" height="60" as="geometry" />
        </mxCell>
        <mxCell id="578sOsebAL8ub08pe5w1-4" value="API/ HTTPS (SSL/TLS)" style="shape=label;whiteSpace=wrap;html=1;boundedLbl=1;backgroundOutline=1;darkOpacity=0.05;darkOpacity2=0.1;fillColor=#f8cecc;strokeColor=#b85450;rounded=0;fontStyle=1" parent="1" vertex="1">
          <mxGeometry x="2109.5" y="682" width="1141" height="20" as="geometry" />
        </mxCell>
        <mxCell id="578sOsebAL8ub08pe5w1-5" value="KM" style="ellipse;whiteSpace=wrap;html=1;fillColor=#dae8fc;strokeColor=#6c8ebf;gradientColor=#7ea6e0;fontStyle=1" parent="1" vertex="1">
          <mxGeometry x="2480" y="568.5" width="30" height="26" as="geometry" />
        </mxCell>
        <mxCell id="578sOsebAL8ub08pe5w1-6" value="HSM" style="ellipse;whiteSpace=wrap;html=1;fillColor=#dae8fc;strokeColor=#6c8ebf;gradientColor=#7ea6e0;fontStyle=1" parent="1" vertex="1">
          <mxGeometry x="2480" y="594.5" width="30" height="26" as="geometry" />
        </mxCell>
        <mxCell id="578sOsebAL8ub08pe5w1-7" value="CA" style="ellipse;whiteSpace=wrap;html=1;fillColor=#dae8fc;strokeColor=#6c8ebf;gradientColor=#7ea6e0;fontStyle=1" parent="1" vertex="1">
          <mxGeometry x="2487" y="620.5" width="30" height="26" as="geometry" />
        </mxCell>
        <mxCell id="578sOsebAL8ub08pe5w1-12" value="IDS, IPS, HONEYPOT" style="shape=label;whiteSpace=wrap;html=1;boundedLbl=1;backgroundOutline=1;darkOpacity=0.05;darkOpacity2=0.1;fillColor=#f0a30a;strokeColor=#BD7000;rounded=0;fontColor=#000000;fontSize=12;fontStyle=1" parent="1" vertex="1">
          <mxGeometry x="2110" y="526" width="1139.9999999999998" height="20" as="geometry" />
        </mxCell>
        <mxCell id="578sOsebAL8ub08pe5w1-13" value="&lt;font style=&quot;font-size: 14px;&quot;&gt;LEGEND&lt;/font&gt;" style="swimlane;whiteSpace=wrap;html=1;" parent="1" vertex="1">
          <mxGeometry x="3280" y="100" width="200" height="230" as="geometry" />
        </mxCell>
        <mxCell id="578sOsebAL8ub08pe5w1-14" value="KM" style="ellipse;whiteSpace=wrap;html=1;fillColor=#dae8fc;strokeColor=#6c8ebf;gradientColor=#7ea6e0;fontStyle=1" parent="578sOsebAL8ub08pe5w1-13" vertex="1">
          <mxGeometry x="10" y="30" width="30" height="26" as="geometry" />
        </mxCell>
        <mxCell id="578sOsebAL8ub08pe5w1-15" value="IDA" style="ellipse;whiteSpace=wrap;html=1;fillColor=#dae8fc;strokeColor=#6c8ebf;gradientColor=#7ea6e0;fontStyle=1" parent="578sOsebAL8ub08pe5w1-13" vertex="1">
          <mxGeometry x="10" y="131" width="30" height="26" as="geometry" />
        </mxCell>
        <mxCell id="578sOsebAL8ub08pe5w1-16" value="HSM" style="ellipse;whiteSpace=wrap;html=1;fillColor=#dae8fc;strokeColor=#6c8ebf;gradientColor=#7ea6e0;fontStyle=1" parent="578sOsebAL8ub08pe5w1-13" vertex="1">
          <mxGeometry x="10" y="91" width="30" height="26" as="geometry" />
        </mxCell>
        <mxCell id="578sOsebAL8ub08pe5w1-17" value="KR" style="ellipse;whiteSpace=wrap;html=1;fillColor=#dae8fc;strokeColor=#6c8ebf;gradientColor=#7ea6e0;fontStyle=1" parent="578sOsebAL8ub08pe5w1-13" vertex="1">
          <mxGeometry x="10" y="59" width="30" height="26" as="geometry" />
        </mxCell>
        <mxCell id="578sOsebAL8ub08pe5w1-18" value="Key Manager" style="text;html=1;strokeColor=none;fillColor=none;align=center;verticalAlign=middle;whiteSpace=wrap;rounded=0;fontSize=14;" parent="578sOsebAL8ub08pe5w1-13" vertex="1">
          <mxGeometry x="40" y="30" width="160" height="28" as="geometry" />
        </mxCell>
        <mxCell id="578sOsebAL8ub08pe5w1-19" value="Key Revocation" style="text;html=1;strokeColor=none;fillColor=none;align=center;verticalAlign=middle;whiteSpace=wrap;rounded=0;fontSize=14;" parent="578sOsebAL8ub08pe5w1-13" vertex="1">
          <mxGeometry x="40" y="58" width="160" height="28" as="geometry" />
        </mxCell>
        <mxCell id="578sOsebAL8ub08pe5w1-20" value="Hardware Security Module" style="text;html=1;strokeColor=none;fillColor=none;align=center;verticalAlign=middle;whiteSpace=wrap;rounded=0;fontSize=14;" parent="578sOsebAL8ub08pe5w1-13" vertex="1">
          <mxGeometry x="40" y="90" width="160" height="28" as="geometry" />
        </mxCell>
        <mxCell id="578sOsebAL8ub08pe5w1-21" value="ID Authentication (DB)" style="text;html=1;strokeColor=none;fillColor=none;align=center;verticalAlign=middle;whiteSpace=wrap;rounded=0;fontSize=14;" parent="578sOsebAL8ub08pe5w1-13" vertex="1">
          <mxGeometry x="40" y="130" width="160" height="28" as="geometry" />
        </mxCell>
        <mxCell id="578sOsebAL8ub08pe5w1-22" value="AC" style="ellipse;whiteSpace=wrap;html=1;fillColor=#dae8fc;strokeColor=#6c8ebf;gradientColor=#7ea6e0;fontStyle=1" parent="578sOsebAL8ub08pe5w1-13" vertex="1">
          <mxGeometry x="10" y="161" width="30" height="26" as="geometry" />
        </mxCell>
        <mxCell id="578sOsebAL8ub08pe5w1-23" value="Access Control" style="text;html=1;strokeColor=none;fillColor=none;align=center;verticalAlign=middle;whiteSpace=wrap;rounded=0;fontSize=14;" parent="578sOsebAL8ub08pe5w1-13" vertex="1">
          <mxGeometry x="40" y="160" width="160" height="28" as="geometry" />
        </mxCell>
        <mxCell id="578sOsebAL8ub08pe5w1-24" value="Certificate Authority" style="text;html=1;strokeColor=none;fillColor=none;align=center;verticalAlign=middle;whiteSpace=wrap;rounded=0;fontSize=14;" parent="578sOsebAL8ub08pe5w1-13" vertex="1">
          <mxGeometry x="40" y="190" width="160" height="28" as="geometry" />
        </mxCell>
        <mxCell id="578sOsebAL8ub08pe5w1-25" value="CA" style="ellipse;whiteSpace=wrap;html=1;fillColor=#dae8fc;strokeColor=#6c8ebf;gradientColor=#7ea6e0;fontStyle=1" parent="578sOsebAL8ub08pe5w1-13" vertex="1">
          <mxGeometry x="10" y="191" width="30" height="26" as="geometry" />
        </mxCell>
        <mxCell id="vALBHNov3Xy2VgJin_U1-95" value="" style="group" parent="1" vertex="1" connectable="0">
          <mxGeometry x="2110" y="702" width="1140" height="40" as="geometry" />
        </mxCell>
        <mxCell id="zsxtk6jnnlvboRljrawx-16" value="" style="group" parent="vALBHNov3Xy2VgJin_U1-95" vertex="1" connectable="0">
          <mxGeometry width="1139.9999999999998" height="40" as="geometry" />
        </mxCell>
        <mxCell id="vALBHNov3Xy2VgJin_U1-96" value="SINGLE/ DUAL FIREWALL" style="shape=label;whiteSpace=wrap;html=1;boundedLbl=1;backgroundOutline=1;darkOpacity=0.05;darkOpacity2=0.1;fillColor=#e51400;fontColor=#ffffff;strokeColor=#B20000;rounded=0;fontStyle=1" parent="zsxtk6jnnlvboRljrawx-16" vertex="1">
          <mxGeometry width="1139.9999999999998" height="20" as="geometry" />
        </mxCell>
        <mxCell id="vALBHNov3Xy2VgJin_U1-97" value="IDS, IPS, HONEYPOT" style="shape=label;whiteSpace=wrap;html=1;boundedLbl=1;backgroundOutline=1;darkOpacity=0.05;darkOpacity2=0.1;fillColor=#f0a30a;strokeColor=#BD7000;rounded=0;fontColor=#000000;fontSize=12;fontStyle=1" parent="zsxtk6jnnlvboRljrawx-16" vertex="1">
          <mxGeometry y="20" width="1139.9999999999998" height="20" as="geometry" />
        </mxCell>
        <mxCell id="PTV4liFlkup0Ows6Lfgs-1" value="API/ HTTPS (SSL/TLS)" style="shape=label;whiteSpace=wrap;html=1;boundedLbl=1;backgroundOutline=1;darkOpacity=0.05;darkOpacity2=0.1;fillColor=#f8cecc;strokeColor=#b85450;rounded=0;fontStyle=1" parent="1" vertex="1">
          <mxGeometry x="2109" y="320.01" width="1141" height="20" as="geometry" />
        </mxCell>
        <mxCell id="PTV4liFlkup0Ows6Lfgs-2" value="FIREWALL" style="shape=label;whiteSpace=wrap;html=1;boundedLbl=1;backgroundOutline=1;darkOpacity=0.05;darkOpacity2=0.1;fillColor=#e51400;fontColor=#ffffff;strokeColor=#B20000;rounded=0;fontStyle=1" parent="1" vertex="1">
          <mxGeometry x="2109" y="340.01" width="1141" height="20" as="geometry" />
        </mxCell>
        <mxCell id="hWS_E1lj5VDzFi5LaFLm-4" value="SEND TOKEN, DEMO. DETAILS, AND VERIFIER CREDENTIALS FOR AUTHENTICATION" style="rounded=0;whiteSpace=wrap;html=1;fontStyle=1;strokeWidth=2;fontSize=11;" parent="1" vertex="1">
          <mxGeometry x="2506.25" y="425" width="151.5" height="53" as="geometry" />
        </mxCell>
        <mxCell id="hWS_E1lj5VDzFi5LaFLm-7" style="edgeStyle=orthogonalEdgeStyle;rounded=0;orthogonalLoop=1;jettySize=auto;html=1;exitX=1;exitY=0.5;exitDx=0;exitDy=0;strokeColor=#00CC00;strokeWidth=2;fontStyle=1;" parent="1" source="hWS_E1lj5VDzFi5LaFLm-5" target="zsxtk6jnnlvboRljrawx-17" edge="1">
          <mxGeometry relative="1" as="geometry" />
        </mxCell>
        <mxCell id="hWS_E1lj5VDzFi5LaFLm-8" style="edgeStyle=orthogonalEdgeStyle;rounded=0;orthogonalLoop=1;jettySize=auto;html=1;exitX=0.5;exitY=1;exitDx=0;exitDy=0;entryX=0;entryY=0.5;entryDx=0;entryDy=0;strokeColor=#FF2617;strokeWidth=2;fontStyle=1;" parent="1" source="hWS_E1lj5VDzFi5LaFLm-5" target="IdOLs9NI2UFiswo4S4uw-5" edge="1">
          <mxGeometry relative="1" as="geometry" />
        </mxCell>
        <mxCell id="hWS_E1lj5VDzFi5LaFLm-5" value="IF VERIFIER CREDENTIALS MATCH&amp;nbsp;" style="rounded=0;whiteSpace=wrap;html=1;fontStyle=1;strokeWidth=2;fontSize=11;shape=rhombus;perimeter=rhombusPerimeter;" parent="1" vertex="1">
          <mxGeometry x="2290" y="854" width="110" height="95.25" as="geometry" />
        </mxCell>
        <mxCell id="hWS_E1lj5VDzFi5LaFLm-6" value="AC" style="ellipse;whiteSpace=wrap;html=1;fillColor=#dae8fc;strokeColor=#6c8ebf;gradientColor=#7ea6e0;fontStyle=1" parent="1" vertex="1">
          <mxGeometry x="2290" y="855.43" width="30" height="26" as="geometry" />
        </mxCell>
        <mxCell id="FpGZ7iAMz-EdmGoISHdU-1" style="edgeStyle=orthogonalEdgeStyle;rounded=0;orthogonalLoop=1;jettySize=auto;html=1;exitX=1;exitY=0.5;exitDx=0;exitDy=0;entryX=0;entryY=0.5;entryDx=0;entryDy=0;strokeColor=#FF2617;strokeWidth=2;fontStyle=1;" parent="1" source="IdOLs9NI2UFiswo4S4uw-5" target="zsxtk6jnnlvboRljrawx-32" edge="1">
          <mxGeometry relative="1" as="geometry" />
        </mxCell>
        <mxCell id="IdOLs9NI2UFiswo4S4uw-5" value="EXCEPTION AND ERROR HANDLING (COUNTER)" style="rounded=0;whiteSpace=wrap;html=1;fontStyle=1;strokeWidth=2;fontSize=11;shape=label;boundedLbl=1;backgroundOutline=1;size=9.769240159254764;" parent="1" vertex="1">
          <mxGeometry x="2490" y="1002.5" width="168.5" height="30" as="geometry" />
        </mxCell>
        <mxCell id="lRVy0GrdeujAx8FmZVql-1" value="&lt;div style=&quot;font-size: 18px;&quot;&gt;&lt;font style=&quot;font-size: 18px;&quot;&gt;&lt;b style=&quot;font-size: 18px;&quot;&gt;Purpose:&lt;/b&gt;&lt;/font&gt;&lt;/div&gt;&lt;div style=&quot;font-size: 18px;&quot;&gt;This SOP&lt;span style=&quot;background-color: rgb(255, 255, 255); color: rgb(13, 13, 13); font-size: 18px; white-space-collapse: preserve;&quot;&gt; specifies the procedure for authenticating users through tokens or shared codes.&lt;/span&gt;&lt;br style=&quot;font-size: 18px;&quot;&gt;&lt;/div&gt;" style="whiteSpace=wrap;html=1;align=left;rounded=0;strokeWidth=2;verticalAlign=middle;fontFamily=Helvetica;fontSize=18;fontStyle=0;" vertex="1" parent="1">
          <mxGeometry x="2080" y="40" width="1200" height="60" as="geometry" />
        </mxCell>
      </root>
    </mxGraphModel>
  </diagram>
</mxfile>
